<?xml version="1.0" encoding="utf-8"?>
<!-- Generator: Adobe Illustrator 21.1.0, SVG Export Plug-In . SVG Version: 6.00 Build 0)  -->
<svg version="1.1" id="Layer_1" xmlns="http://www.w3.org/2000/svg" xmlns:xlink="http://www.w3.org/1999/xlink" x="0px" y="0px"
	 viewBox="0 0 384.1 384.2" style="enable-background:new 0 0 384.1 384.2;" xml:space="preserve">
<style type="text/css">
	.st0{fill:#281246;}
</style>
<path class="st0" d="M373.6,322.7L243,192.1L373.6,61.5c14.1-14.1,14.1-36.8,0-50.9s-36.8-14.1-50.9,0L192.1,141.2L61.5,10.6
	c-14.1-14.1-36.8-14.1-50.9,0s-14.1,36.8,0,50.9l130.6,130.6L10.6,322.7c-14.1,14.1-14.1,36.8,0,50.9s36.8,14.1,50.9,0L192.1,243
	l130.6,130.6c14.1,14.1,36.8,14.1,50.9,0C387.6,359.5,387.6,336.7,373.6,322.7z"/>
</svg>
